<svg width="33" height="28" viewBox="0 0 33 28" fill="none" xmlns="http://www.w3.org/2000/svg">
<path d="M32.9999 27.5473C32.8583 27.618 32.7404 27.6888 32.5989 27.736C32.5281 27.7596 32.4337 27.736 32.3394 27.736C22.5734 27.736 12.8073 27.736 3.04133 27.736C2.92339 27.736 2.75826 27.7596 2.6639 27.7124C2.54596 27.6652 2.40442 27.5237 2.40442 27.4057C2.40442 27.2878 2.54596 27.1698 2.64031 27.0991C2.68749 27.0519 2.80544 27.0755 2.8998 27.0755C12.7602 27.0755 22.6205 27.0755 32.4809 27.0755C32.646 27.0755 32.8112 27.1934 32.9999 27.2642C32.9999 27.3821 32.9999 27.4529 32.9999 27.5473Z" fill="white"/>
<path d="M7.66495 14.7381C3.60757 14.7381 0.305054 11.4356 0.305054 7.37821C0.305054 3.32083 3.58398 0.0183105 7.66495 0.0183105C11.7223 0.0183105 15.0484 3.32083 15.0484 7.37821C15.0248 11.4356 11.7223 14.7381 7.66495 14.7381ZM7.9952 12.2376C8.08956 12.214 8.18392 12.1904 8.27827 12.1669C9.5521 11.8602 10.4249 10.61 10.2362 9.31254C10.0475 7.96794 9.03313 7.11872 7.57059 7.04795C6.34394 7.00078 5.47113 5.79772 5.7778 4.64184C6.03728 3.67467 6.8865 3.08493 7.92443 3.1557C8.84442 3.22647 9.57569 4.02851 9.64646 4.99568C9.67005 5.23157 9.71723 5.3967 10.0003 5.37311C10.2834 5.34952 10.307 5.1608 10.2834 4.92491C10.189 3.74544 9.38698 2.80186 8.25468 2.54238C8.08956 2.4952 8.01879 2.47161 7.9952 2.2593C7.97161 2.14136 7.80649 1.97623 7.71213 1.97623C7.61777 1.97623 7.42905 2.14136 7.40547 2.23572C7.38188 2.44802 7.28752 2.4952 7.0988 2.54238C5.75421 2.87263 4.90499 4.19364 5.18806 5.56182C5.44754 6.81206 6.4383 7.59051 7.80648 7.66128C8.60852 7.70846 9.19826 8.10948 9.52851 8.84075C9.85876 9.57202 9.74082 10.2797 9.19826 10.893C8.67929 11.4828 7.9952 11.6951 7.24034 11.4828C6.39112 11.2705 5.87215 10.61 5.7778 9.71356C5.75421 9.47766 5.70703 9.26536 5.42395 9.28895C5.14088 9.31254 5.14088 9.52484 5.16447 9.73715C5.18806 10.7987 6.03728 11.813 7.0988 12.0725C7.31111 12.1197 7.45264 12.1433 7.45264 12.4027C7.45264 12.4971 7.64136 12.6386 7.75931 12.6386C7.85366 12.6386 7.97161 12.4735 8.04238 12.3792C7.9952 12.4263 7.97161 12.332 7.9952 12.2376Z" fill="white"/>
<path d="M23.5406 26.462C22.0309 26.462 20.5448 26.462 19.0115 26.462C19.0115 26.3204 19.0115 26.2261 19.0115 26.1081C19.0115 18.3944 19.0115 10.6571 19.0115 2.94335C19.0115 2.44797 19.0822 2.3772 19.5776 2.3772C20.7335 2.3772 21.8894 2.3772 23.0453 2.3772C23.4463 2.3772 23.5406 2.47156 23.5406 2.87258C23.5406 10.6571 23.5406 18.4416 23.5406 26.2261C23.5406 26.2733 23.5406 26.344 23.5406 26.462Z" fill="white"/>
<path d="M30.7589 26.462C29.2492 26.462 27.763 26.462 26.2297 26.462C26.2297 26.3441 26.2297 26.2261 26.2297 26.1082C26.2297 20.0457 26.2297 14.0068 26.2297 7.94432C26.2297 7.44894 26.3005 7.37817 26.7959 7.37817C27.9518 7.37817 29.1076 7.37817 30.2635 7.37817C30.641 7.37817 30.7353 7.47253 30.7353 7.84996C30.7353 13.9832 30.7353 20.0929 30.7353 26.2261C30.7589 26.2969 30.7589 26.3676 30.7589 26.462Z" fill="white"/>
<path d="M15.6618 7.40163C16.2516 7.33086 16.3459 7.42522 16.3459 7.96778C16.3459 14.0067 16.3459 20.0456 16.3459 26.108C16.3459 26.226 16.3459 26.3439 16.3459 26.4619C14.8126 26.4619 13.3265 26.4619 11.8168 26.4619C11.8168 26.3439 11.8168 26.226 11.8168 26.108C11.8168 22.2394 11.8168 18.3943 11.8168 14.5256C11.8168 14.3133 11.864 14.1954 12.0527 14.0538C14.2937 12.5205 15.5203 10.3975 15.6618 7.68471C15.6383 7.59035 15.6618 7.51958 15.6618 7.40163Z" fill="white"/>
<path d="M9.1275 26.4624C7.64136 26.4624 6.15523 26.4624 4.64551 26.4624C4.64551 22.5701 4.64551 18.7015 4.64551 14.7856C6.08446 15.3518 7.5706 15.5169 9.1275 15.2574C9.1275 18.9846 9.1275 22.7117 9.1275 26.4624Z" fill="white"/>
</svg>
