<svg width="34" height="35" viewBox="0 0 34 35" fill="none" xmlns="http://www.w3.org/2000/svg">
<path d="M19.7103 4.21969C21.0354 4.51271 22.2314 4.98156 23.3571 5.63794C27.1915 7.87666 29.5132 11.182 30.1582 15.5774C31.2135 22.8913 26.0541 29.7482 18.7253 30.8734C18.0921 30.9672 17.541 30.9203 16.9899 30.5686C16.2277 30.0764 15.4069 29.6661 14.6095 29.2324C14.0115 28.9043 13.5776 29.1621 13.5659 29.8537C13.5659 30.0646 13.5659 30.2873 13.5659 30.6038C12.8624 30.3694 12.1822 30.1936 11.549 29.9123C6.80002 27.8728 3.86854 24.333 3.12981 19.1992C2.10965 12.0611 6.87038 5.4504 13.9529 4.00871C14.246 3.9501 14.5392 3.91494 14.8206 3.85634C15.2779 3.76257 15.6766 3.84462 16.087 4.09076C16.9313 4.59476 17.799 5.0636 18.6667 5.53245C19.2647 5.86064 19.6986 5.60277 19.7103 4.91123C19.7103 4.71197 19.7103 4.50099 19.7103 4.21969ZM8.01953 17.3942C8.01953 22.1412 11.8891 25.9974 16.6264 25.9974C21.3754 25.9974 25.245 22.1412 25.245 17.3942C25.245 12.6354 21.3754 8.76747 16.6147 8.76747C11.8774 8.79091 8.01953 12.6471 8.01953 17.3942Z" fill="white"/>
<path d="M18.4789 4.04377C17.2477 3.36395 16.0751 2.70757 14.8204 2.01602C16.0634 1.32448 17.2477 0.668101 18.4555 0C18.4672 0.187537 18.4555 0.328193 18.4907 0.457124C18.5727 0.879083 18.9245 0.949411 19.2763 1.00802C21.0938 1.28932 22.8175 1.84021 24.424 2.73101C29.1965 5.36825 32.1397 9.36513 33.0309 14.7568C34.4849 23.5828 28.6805 31.9282 19.9564 33.6981C19.7453 33.7449 19.5343 33.7684 19.2998 33.7332C19.4991 33.616 19.6984 33.5105 19.8861 33.3933C20.4724 33.0534 20.4724 32.526 19.8978 32.1743C19.8274 32.1274 19.7453 32.0806 19.6046 31.9985C19.9212 31.9165 20.1675 31.8579 20.4137 31.7875C26.2533 30.2638 30.627 25.2941 31.4009 19.3046C32.3977 11.557 27.2265 4.36024 19.546 2.80134C18.7017 2.62552 18.4086 3.01232 18.4907 3.68042C18.4907 3.77419 18.4789 3.87967 18.4789 4.04377Z" fill="white"/>
<path d="M13.9059 1.01977C13.601 1.28936 13.1672 1.50034 12.9913 1.85197C12.745 2.34426 13.261 2.55523 13.601 2.75449C12.6512 3.07096 11.7131 3.3171 10.8337 3.71562C5.86188 5.95434 2.78969 9.74025 1.94542 15.1319C0.913536 21.7192 4.22025 27.8845 10.1888 30.803C11.3614 31.3773 12.5809 31.7758 13.859 32.0103C14.5157 32.1275 14.7736 31.9048 14.7854 31.2484C14.7854 31.1077 14.7854 30.9671 14.7854 30.7444C16.0049 31.4242 17.1892 32.0689 18.4438 32.7721C17.2126 33.4637 16.0283 34.1201 14.8322 34.7882C14.715 33.9208 14.7033 33.9442 13.8121 33.7567C6.99931 32.3385 2.43791 28.3299 0.596935 21.6137C-1.65445 13.4207 2.63725 5.12215 10.5288 1.95746C11.549 1.54722 12.663 1.33625 13.73 1.0315C13.8004 1.00806 13.8707 1.01977 13.9059 1.01977Z" fill="white"/>
<path d="M16.6264 24.7783C12.5457 24.7783 9.25073 21.473 9.25073 17.3941C9.25073 13.3034 12.5575 9.99808 16.6616 10.0098C20.7422 10.0215 24.0254 13.3269 24.0254 17.4058C24.0137 21.4847 20.707 24.7783 16.6264 24.7783ZM15.9932 20.465C15.8407 20.465 15.7 20.465 15.5593 20.465C14.6212 20.4533 14.2694 20.1368 14.1639 19.2226C14.117 18.8592 13.8708 18.6131 13.5307 18.6248C13.1789 18.6365 12.9444 18.9061 12.9327 19.2929C12.9092 20.3829 13.6949 21.3792 14.7971 21.6137C15.1841 21.6957 15.5828 21.6957 15.9932 21.7426C16.0401 22.2114 15.8525 22.903 16.6146 22.9147C17.4003 22.9147 17.1892 22.1997 17.2596 21.7309C19.3233 21.5433 20.2028 20.8869 20.3083 19.4687C20.3552 18.8475 20.2028 18.2614 19.8393 17.7574C19.1944 16.8783 18.268 16.7025 17.2361 16.7846C17.2361 15.9758 17.2361 15.2374 17.2361 14.499C17.2361 14.4521 17.2478 14.4052 17.2596 14.3114C17.5527 14.3232 17.8341 14.3114 18.1038 14.3583C18.7839 14.4872 19.0302 14.7803 19.0888 15.4835C19.124 15.9055 19.3585 16.1634 19.722 16.1634C20.0973 16.1516 20.3318 15.8586 20.32 15.4249C20.2966 14.3232 19.5227 13.3972 18.4204 13.1745C18.0452 13.1042 17.6583 13.0924 17.2596 13.0573C17.2127 12.5884 17.412 11.8969 16.6498 11.8852C15.8524 11.8734 16.0752 12.5884 16.0049 13.0573C13.9059 13.2917 13.0617 13.9246 12.9561 15.3194C12.9092 15.9407 13.0617 16.515 13.4252 17.0307C14.0584 17.9215 15.0082 18.0739 16.0049 18.0153C15.9932 18.8592 15.9932 19.6445 15.9932 20.465Z" fill="white"/>
<path d="M15.9813 16.7495C14.8322 16.8667 14.2693 16.7026 14.1755 15.5188C14.1052 14.6397 14.7149 14.2646 15.9813 14.335C15.9813 15.132 15.9813 15.929 15.9813 16.7495Z" fill="white"/>
<path d="M17.2595 20.4649C17.2595 19.6444 17.2595 18.8474 17.2595 18.0035C17.7989 18.0386 18.3852 17.8394 18.7839 18.3786C19.1239 18.8357 19.2412 19.3866 18.9481 19.9023C18.5846 20.5352 17.9279 20.4766 17.2595 20.4649Z" fill="white"/>
</svg>
