<svg width="31" height="35" viewBox="0 0 31 35" fill="none" xmlns="http://www.w3.org/2000/svg">
<path d="M7.94045 32.2977C7.75529 31.5835 7.54367 30.8693 7.35851 30.1816C6.96173 28.7003 6.56495 27.1925 6.14172 25.7112C6.06237 25.4202 6.11527 25.288 6.37979 25.1557C7.09399 24.7325 7.75529 24.2828 8.46949 23.8596C9.05143 23.5157 9.68628 23.4892 10.3476 23.6744C12.9663 24.3886 15.585 25.1028 18.2038 25.817C18.7857 25.9757 19.1561 26.4518 19.1296 27.0338C19.1296 27.5893 18.7857 28.0654 18.2302 28.1977C17.9922 28.2506 17.7012 28.2506 17.4631 28.1712C15.9025 27.7744 14.3418 27.3512 12.7811 26.928C12.4373 26.8222 12.1728 26.9544 12.0934 27.219C11.9876 27.5364 12.1463 27.7744 12.5166 27.8803C14.1566 28.3299 15.7967 28.7532 17.4367 29.2028C17.9393 29.3351 18.4683 29.2557 18.918 29.0177C21.2193 27.8273 23.5471 26.6106 25.8484 25.3938C26.8271 24.8912 27.8323 24.3886 28.811 23.886C29.2078 23.6744 29.631 23.6215 30.0542 23.7538C30.6097 23.9389 30.9271 24.3357 30.98 24.8912C31.0594 25.4996 30.7949 25.9757 30.2923 26.2667C29.6575 26.6635 28.9962 27.0073 28.3349 27.3777C25.0019 29.3087 21.6425 31.2396 18.3096 33.1706C17.6747 33.541 16.987 33.488 16.3257 33.3558C14.8973 33.0648 13.4953 32.6945 12.0934 32.3771C10.956 32.1126 9.79208 31.9274 8.6282 32.1126C8.41659 32.1655 8.20497 32.2184 7.94045 32.2977Z" fill="white"/>
<path d="M27.2502 5.31683C27.2502 8.25299 24.8696 10.6337 21.9599 10.6337C19.0237 10.6337 16.6166 8.22654 16.643 5.26393C16.643 2.38067 19.0237 0 21.9334 0C24.8696 0 27.2502 2.38067 27.2502 5.31683ZM20.0818 6.74523C20.1347 7.38008 20.4521 7.96202 21.1399 8.30589C21.2457 8.3588 21.3515 8.51751 21.3779 8.62331C21.4308 8.96719 21.616 9.20526 21.9334 9.20526C22.2244 9.20526 22.4889 8.99364 22.5154 8.64977C22.5154 8.4117 22.6212 8.33235 22.8063 8.22654C23.547 7.85621 23.9173 7.0362 23.785 6.24265C23.5999 5.36973 22.9915 4.81424 22.1186 4.70844C22.0128 4.70844 21.8805 4.68198 21.7747 4.65553C21.4573 4.57618 21.2986 4.36456 21.2457 4.04714C21.2192 3.72972 21.325 3.49165 21.5895 3.33294C22.0921 3.04197 22.6476 3.38584 22.6741 4.02069C22.7005 4.41747 22.9386 4.65553 23.256 4.65553C23.5734 4.65553 23.838 4.36456 23.8115 3.99424C23.785 3.28003 23.5205 2.69809 22.8592 2.35422C22.6476 2.24841 22.5154 2.1426 22.5154 1.87808C22.4889 1.53421 22.2508 1.34905 21.9334 1.3755C21.616 1.40195 21.4044 1.58711 21.4044 1.90454C21.4044 2.16905 21.2721 2.24841 21.087 2.32777C19.8966 2.96261 19.7379 4.62908 20.8224 5.42264C21.1399 5.63425 21.5631 5.74006 21.9334 5.81942C22.3566 5.89877 22.6476 6.13684 22.6741 6.53362C22.7005 6.90394 22.4625 7.19491 22.0921 7.30072C21.6689 7.40653 21.2986 7.11556 21.2192 6.56007C21.1663 6.18974 20.9282 5.97813 20.6108 6.00458C20.2934 6.05748 20.0818 6.29555 20.0818 6.74523Z" fill="white"/>
<path d="M21.9599 14.2842C23.547 14.2842 25.1341 14.2842 26.7213 14.2842C27.8058 14.2842 28.3348 14.8132 28.3348 15.8977C28.3348 16.2152 28.3348 16.5326 28.3348 16.8765C28.3348 17.8552 27.7529 18.4107 26.7742 18.4371C26.1922 18.4371 25.6367 18.4371 25.0548 18.4371C22.4625 18.4371 19.8702 18.4371 17.2515 18.4371C16.0611 18.4371 15.5321 17.8816 15.5321 16.7178C15.5321 16.4268 15.5321 16.1094 15.5321 15.8184C15.5586 14.8926 16.114 14.3106 17.0663 14.3106C18.6799 14.2842 20.3199 14.3106 21.9599 14.2842Z" fill="white"/>
<path d="M21.9335 23.2511C20.3199 23.2511 18.6799 23.2511 17.0663 23.2511C16.1405 23.2511 15.5586 22.6691 15.5321 21.7433C15.5321 21.373 15.5321 21.0291 15.5321 20.6588C15.5586 19.7065 16.1405 19.0981 17.1192 19.0981C20.0025 19.0981 22.8593 19.0981 25.7425 19.0981C26.1129 19.0981 26.4832 19.0981 26.8535 19.0981C27.7529 19.1246 28.3348 19.6801 28.3348 20.5795C28.3348 21.0027 28.3348 21.4259 28.3348 21.8227C28.3084 22.6427 27.7264 23.2246 26.9064 23.2246C25.2399 23.2775 23.5735 23.2511 21.9335 23.2511Z" fill="white"/>
<path d="M21.9069 13.5962C20.2933 13.5962 18.6797 13.5962 17.0662 13.5962C16.1139 13.5962 15.5319 13.0143 15.5055 12.062C15.5055 11.5859 15.5055 11.1097 15.5584 10.6336C15.5849 10.2104 15.8494 9.89295 16.1932 9.68133C16.6694 9.36391 16.9074 9.39036 17.3042 9.78714C19.8965 12.4588 24.1288 12.4059 26.6682 9.68133C26.8798 9.44326 27.065 9.44326 27.3295 9.52262C27.9114 9.70778 28.3082 10.1839 28.3082 10.7923C28.3347 11.242 28.3347 11.6917 28.3082 12.1414C28.2818 13.0143 27.6998 13.5962 26.8269 13.5962C25.2133 13.5962 23.5733 13.5962 21.9069 13.5962Z" fill="white"/>
<path d="M10.9823 7.8296C10.9823 8.438 10.9823 8.96703 10.9823 9.49607C10.9823 10.4483 10.9823 11.3742 10.9823 12.3264C10.9823 12.9877 10.5062 13.4903 9.89782 13.5168C9.21007 13.5697 8.68103 13.1464 8.60168 12.4587C8.57523 12.2471 8.57523 12.009 8.57523 11.7709C8.57523 10.6071 8.57523 9.44317 8.57523 8.27928C8.57523 8.14702 8.57523 8.01477 8.57523 7.8296C8.31071 8.01477 8.12554 8.17348 7.91393 8.30574C7.35844 8.70251 6.64424 8.59671 6.24746 8.09412C5.82423 7.56508 5.90359 6.82443 6.45908 6.4012C7.30554 5.7399 8.152 5.07861 8.99846 4.44376C9.50104 4.07343 10.0301 4.07343 10.5062 4.44376C11.3527 5.07861 12.2256 5.7399 13.0456 6.4012C13.5746 6.82443 13.6804 7.53863 13.2837 8.06767C12.8869 8.59671 12.1727 8.70251 11.5907 8.30574C11.4585 8.17348 11.2733 8.01477 10.9823 7.8296Z" fill="white"/>
<path d="M4.97775 15.8183C4.97775 17.3525 4.97775 18.8338 4.97775 20.2887C4.97775 20.8441 4.60742 21.3203 4.10483 21.4525C3.54935 21.5848 2.99386 21.3732 2.75579 20.8706C2.62353 20.6325 2.59708 20.368 2.57063 20.1035C2.54417 18.8338 2.57063 17.5641 2.57063 16.3209C2.57063 16.1886 2.57063 16.0564 2.57063 15.8447C2.33256 16.0299 2.1474 16.1622 1.96223 16.2944C1.40674 16.7177 0.66609 16.6383 0.269311 16.1357C-0.153919 15.6067 -0.0745632 14.866 0.480926 14.4163C1.32739 13.755 2.17385 13.0937 3.02031 12.4589C3.52289 12.0886 3.99903 12.0886 4.50161 12.4589C5.37453 13.1202 6.22099 13.755 7.0939 14.4428C7.62294 14.866 7.70229 15.5802 7.30551 16.1093C6.90874 16.6383 6.19453 16.7441 5.63905 16.3473C5.45388 16.1886 5.24227 16.0299 4.97775 15.8183Z" fill="white"/>
<path d="M4.23712 24.3359C4.63389 24.3888 4.81906 24.574 4.92487 24.9179C5.3481 26.505 5.77133 28.0921 6.19456 29.6792C6.51198 30.896 6.8294 32.0863 7.14682 33.3031C7.30554 33.938 7.17328 34.176 6.56488 34.3612C6.08875 34.4935 5.61261 34.5993 5.16293 34.7315C4.63389 34.8638 4.36938 34.7051 4.21066 34.176C3.76098 32.4831 3.3113 30.7902 2.83517 29.0708C2.5442 27.9598 2.25322 26.8753 1.96225 25.7643C1.82999 25.2353 1.96225 24.9708 2.49129 24.8385C3.07323 24.6534 3.68163 24.4946 4.23712 24.3359ZM2.88807 26.2934C2.88807 26.7431 3.23195 27.0869 3.65518 27.1134C4.10486 27.1398 4.47518 26.7695 4.47518 26.2934C4.47518 25.8437 4.13131 25.4998 3.70808 25.4734C3.2584 25.4734 2.88807 25.8437 2.88807 26.2934Z" fill="white"/>
</svg>
