<svg width="34" height="34" viewBox="0 0 34 34" fill="none" xmlns="http://www.w3.org/2000/svg">
<path d="M18.9709 22.9652C15.1322 22.9652 12.01 19.8174 12.0356 15.9786C12.0611 12.191 15.1833 9.0688 18.9965 9.09439C22.8353 9.09439 25.9575 12.2422 25.9319 16.0554C25.9319 19.8686 22.7841 22.9908 18.9709 22.9652ZM19.5596 12.1142C19.5084 11.3465 19.3804 11.0906 18.9965 11.0906C18.6127 11.0906 18.5103 11.2953 18.4079 12.1142C18.2544 12.1654 18.0752 12.2166 17.9217 12.2678C17.0516 12.5749 16.4629 13.3426 16.4373 14.1872C16.4118 15.0829 16.8468 15.7995 17.7681 16.1833C18.152 16.3369 18.5615 16.4137 18.9454 16.5416C19.3548 16.6696 19.7643 16.7719 20.1482 16.9511C20.5065 17.1302 20.6856 17.4885 20.6344 17.898C20.6088 18.2819 20.3529 18.4866 20.0458 18.6402C19.8411 18.7425 19.6363 18.7937 19.4316 18.8449C18.4591 19.0496 17.6146 18.6146 17.3075 17.8212C17.1539 17.4373 16.898 17.2582 16.5909 17.3606C16.2838 17.4629 16.1558 17.7956 16.2838 18.1795C16.5653 19.0496 17.2051 19.5615 18.0496 19.8174C18.1776 19.8686 18.3056 19.8942 18.4335 19.9197C18.4847 20.6875 18.5871 20.9178 18.9454 20.9178C19.0733 20.9178 19.278 20.8922 19.3292 20.8155C19.4572 20.5339 19.5596 20.2524 19.6619 19.9453C19.969 19.843 20.3273 19.7406 20.6344 19.5615C22.0932 18.7937 22.1955 16.8999 20.788 16.0298C20.3529 15.7483 19.7899 15.6203 19.278 15.4668C18.8942 15.3388 18.4591 15.2876 18.1008 15.1085C17.4098 14.7758 17.3587 13.9057 17.9729 13.445C18.3823 13.1379 18.843 13.0611 19.3548 13.1635C19.9178 13.2659 20.3017 13.5986 20.532 14.1104C20.6856 14.4175 20.9671 14.5199 21.2486 14.3919C21.5301 14.2639 21.6325 13.9824 21.5045 13.6497C21.4789 13.5474 21.4278 13.4706 21.3766 13.3682C20.9671 12.6773 20.3529 12.2934 19.5596 12.1142Z" fill="white"/>
<path d="M6.76352 29.8241C5.86781 28.2374 4.99769 26.7019 4.12756 25.1408C4.46026 24.9617 4.74177 24.7825 5.04887 24.6034C6.27728 23.9124 7.4801 23.1958 8.7341 22.5048C9.62981 21.993 10.5511 21.9418 11.5492 22.3001C13.1103 22.8631 14.7226 23.2982 16.3093 23.81C16.4116 23.8356 16.514 23.8356 16.6164 23.8612C17.205 23.9892 17.6145 24.5266 17.5121 25.064C17.3841 25.627 16.8467 25.9597 16.2325 25.8062C15.1832 25.5503 14.1596 25.2688 13.1103 24.9872C13.0079 24.9616 12.9056 24.9361 12.8032 24.9105C12.4193 24.8081 12.1122 24.9617 12.0354 25.2943C11.9331 25.6014 12.1378 25.9085 12.5217 26.0109C13.2383 26.2156 13.9548 26.4204 14.6714 26.5995C15.4392 26.7787 16.2069 26.9578 17.0003 27.0858C18.0239 27.2393 18.9708 26.9834 19.8666 26.446C21.5812 25.4223 23.3214 24.4242 25.0617 23.4005C25.7271 23.0167 26.4181 22.6328 27.237 22.6072C27.8768 22.5816 28.2607 22.8375 28.4142 23.3494C28.5678 23.9124 28.3886 24.3986 27.8512 24.7313C24.6522 26.7019 21.4276 28.6725 18.2287 30.6686C17.3074 31.2317 16.3605 31.3596 15.3368 31.0781C13.0591 30.4383 10.7814 29.8497 8.50377 29.2355C8.19667 29.1587 7.91516 29.1843 7.65924 29.3634C7.32654 29.517 7.04503 29.645 6.76352 29.8241Z" fill="white"/>
<path d="M27.8001 10.8091C27.2114 10.8091 26.674 10.8091 26.1366 10.8091C26.0086 10.8091 25.8295 10.7324 25.7783 10.63C25.7271 10.5276 25.8039 10.3485 25.8807 10.2461C27.1091 8.78739 28.3375 7.32865 29.5659 5.86992C29.7706 5.614 29.9498 5.614 30.1545 5.86992C31.4085 7.32865 32.6369 8.78739 33.8909 10.2717C33.9677 10.3741 34.0189 10.5532 33.9933 10.63C33.9421 10.7324 33.7629 10.8091 33.635 10.8091C33.0976 10.8347 32.5601 10.8091 31.9715 10.8091C31.9715 10.9627 31.9715 11.0907 31.9715 11.2186C31.9715 13.4451 31.9715 15.646 31.9715 17.8725C31.9715 18.4867 31.7924 18.6658 31.1782 18.6658C30.2825 18.6658 29.4123 18.6658 28.5166 18.6658C28.0304 18.6658 27.8256 18.4867 27.8256 17.9749C27.8256 15.7228 27.8256 13.4963 27.8256 11.2442C27.8 11.1162 27.8001 10.9883 27.8001 10.8091Z" fill="white"/>
<path d="M9.93691 10.8093C9.93691 10.9628 9.93691 11.0908 9.93691 11.2187C9.93691 13.4452 9.93691 15.6717 9.93691 17.8982C9.93691 18.5124 9.78336 18.666 9.16915 18.666C8.29903 18.666 7.4545 18.666 6.58438 18.666C5.99576 18.666 5.81662 18.4868 5.81662 17.8726C5.81662 15.6461 5.81662 13.4452 5.81662 11.2187C5.81662 11.0908 5.81662 10.9628 5.81662 10.7837C5.27919 10.7837 4.74177 10.7837 4.22993 10.7837C4.07638 10.7837 3.84605 10.7069 3.79486 10.6045C3.74368 10.5022 3.84605 10.2718 3.94842 10.1695C5.12564 8.76192 6.32846 7.35437 7.53127 5.94682C7.83838 5.56294 7.94074 5.58853 8.27344 5.97241C9.47625 7.37996 10.6535 8.76192 11.8307 10.1951C11.9331 10.323 12.0354 10.5278 11.9843 10.6301C11.9331 10.7325 11.7027 10.8093 11.5492 10.8093C11.0374 10.8093 10.5255 10.8093 9.93691 10.8093Z" fill="white"/>
<path d="M21.5301 6.61205C21.5301 7.22625 21.5301 7.78928 21.5301 8.40348C19.8155 7.86605 18.1264 7.84046 16.4117 8.40348C16.4117 7.78928 16.4117 7.22625 16.4117 6.61205C15.7975 6.61205 15.2089 6.61205 14.6203 6.61205C14.5179 6.61205 14.39 6.63764 14.2876 6.61205C14.1341 6.56087 13.9549 6.50968 13.8781 6.40732C13.827 6.30495 13.9037 6.10021 13.9805 5.99785C14.5179 5.33246 15.081 4.69266 15.6184 4.05287C16.5909 2.90123 17.589 1.7496 18.5615 0.597967C18.8941 0.214089 19.0221 0.214089 19.3548 0.597967C20.8647 2.3894 22.4002 4.18083 23.9101 5.97225C24.0125 6.10021 24.0893 6.33054 24.0381 6.48409C24.0125 6.58646 23.731 6.66323 23.5775 6.66323C22.9121 6.61205 22.2467 6.61205 21.5301 6.61205Z" fill="white"/>
<path d="M2.05472 23.9377C2.15708 24.0657 2.28504 24.1681 2.36182 24.3216C3.61582 26.5225 4.84423 28.7234 6.09823 30.8987C6.30296 31.257 6.5077 31.6409 6.73802 31.9992C6.86598 32.2295 6.84039 32.3831 6.61006 32.511C6.14941 32.7669 5.71435 33.0229 5.2537 33.2788C5.02337 33.4067 4.86982 33.33 4.74186 33.1252C4.40917 32.511 4.05088 31.8968 3.71819 31.3082C2.61774 29.3632 1.51729 27.4438 0.44243 25.4988C0.16092 25.0126 0.160921 25.0126 0.647166 24.7311C1.00545 24.5264 1.38933 24.3216 1.74761 24.1169C1.7988 24.0401 1.90117 24.0145 2.05472 23.9377ZM1.77321 26.1131C2.08031 26.1131 2.31064 25.8571 2.31064 25.55C2.31064 25.2429 2.05471 25.0126 1.74761 25.0382C1.4661 25.0638 1.23578 25.2941 1.23578 25.5756C1.21018 25.8571 1.4661 26.1131 1.77321 26.1131Z" fill="white"/>
</svg>
